<svg width="119" height="92" viewBox="0 0 119 92" fill="none" xmlns="http://www.w3.org/2000/svg">
<path d="M82.6822 0H118.117C116.149 3.28103 102.893 26.3795 90.1629 48.5592C82.6822 61.5521 74.414 76.1198 65.0959 92H53.2842C54.3341 90.2939 66.0145 69.689 77.5638 49.7404C84.257 38.0599 91.869 24.8046 100.4 10.2368H88.588C72.0516 38.5849 62.471 55.515 47.3783 81.7632C46.4596 80.1883 -0.130964 0.131241 0.000276748 0H35.4354L53.2842 30.7104L47.3783 40.9472L29.5295 10.2368H17.7178C20.3426 14.4365 44.8847 57.2211 47.3783 61.2896L73.1016 16.6676L82.6822 0Z" fill="#FFCD3C"/>
</svg>
