<svg width="203" height="35" viewBox="0 0 203 35" fill="none" xmlns="http://www.w3.org/2000/svg">
<path d="M30.6941 3.8147e-06H43.8486C43.1178 1.21802 38.1971 9.79284 33.4712 18.0266C30.6941 22.85 27.6247 28.258 24.1655 34.1531H19.7807C20.1704 33.5198 24.5066 25.8706 28.794 18.4651C31.2787 14.129 34.1045 9.2082 37.2714 3.80021H32.8865C26.7477 14.3239 23.1911 20.6088 17.5882 30.3529C17.2472 29.7683 -0.0486179 0.0487244 0.000102737 3.8147e-06H13.1547L19.7807 11.4006L17.5882 15.2008L10.9622 3.80021H6.57738C7.5518 5.35927 16.6625 21.2422 17.5882 22.7525L27.1375 6.18752L30.6941 3.8147e-06Z" fill="#FFCD3C"/>
<path d="M73.0949 7.79225C73.309 7.79225 73.5465 7.9825 73.4038 8.29166L64.6522 26.6276C64.5808 26.7941 64.4141 26.9366 64.2239 26.9366H64.0338C63.8436 26.9366 63.6771 26.7941 63.6058 26.6276L54.8541 8.26781C54.7114 7.98243 54.9492 7.79218 55.1633 7.79218H57.5653C57.8031 7.79218 57.8982 7.98243 57.9933 8.22024L64.129 21.5855L70.265 8.22024C70.3839 7.98243 70.4553 7.79218 70.6931 7.79218L73.0949 7.79225ZM78.1599 7.79225L76.3284 7.79202C76.0906 7.79202 75.9479 7.95848 75.9479 8.17253V26.4131C75.9479 26.6509 76.1144 26.8174 76.3524 26.8174H78.1836C78.3977 26.8174 78.5404 26.6274 78.5404 26.4133V8.17277C78.5404 7.95873 78.3739 7.79225 78.1599 7.79225ZM92.31 16.6863C94.2839 17.5901 95.5205 19.3977 95.5205 21.5142C95.5205 24.6534 92.7618 26.8173 89.8367 26.8173H82.1552C81.9174 26.8173 81.7509 26.6508 81.7509 26.413V8.17244C81.7509 7.9584 81.8936 7.79192 82.1314 7.79192H89.2185C92.2386 7.79192 94.4978 10.4318 94.4978 12.8099C94.4978 14.546 93.5704 15.9016 92.31 16.6863ZM88.6953 15.9019C92.6431 15.9019 92.7144 10.3845 88.7428 10.3845H84.4383V15.9019H88.6953ZM89.2183 24.2255C93.8795 24.2255 93.9034 18.4227 89.1708 18.4227H84.4382L84.462 24.2255H89.2183ZM112.476 26.3653C112.643 26.6031 112.524 26.8172 112.215 26.8172H110.455C109.932 26.8172 109.504 26.3418 109.314 26.0564L105.604 20.5866H100.895V26.4131C100.895 26.6747 100.752 26.8171 100.514 26.8171H98.588C98.3502 26.8171 98.2075 26.6747 98.2075 26.4131V8.17249C98.2075 7.95846 98.3502 7.79198 98.588 7.79198H105.913C110.074 7.79198 112.31 11.3354 112.31 14.1891C112.31 16.5672 110.883 19.2311 108.196 20.2058L112.476 26.3653ZM100.895 10.3838V17.9939H105.604C108.292 17.9939 109.623 16.0676 109.623 14.1412C109.623 12.2387 108.268 10.3837 105.604 10.3837L100.895 10.3838ZM133.405 26.3891C133.524 26.6271 133.453 26.8172 133.191 26.8172H131.027C130.813 26.8172 130.694 26.7223 130.623 26.5556L129.149 23.4639H118.899L117.448 26.5556C117.353 26.7223 117.234 26.8172 117.044 26.8172H114.856C114.618 26.8172 114.499 26.6271 114.594 26.3891L123.56 7.88755C123.631 7.72108 123.75 7.67352 123.869 7.67352H124.178C124.297 7.67352 124.392 7.72108 124.487 7.88755L133.405 26.3891ZM120.063 21.0147H127.983L124.035 12.596L120.063 21.0147ZM152.311 7.79225C152.525 7.79225 152.692 7.95895 152.692 8.14921V26.4613C152.692 26.6516 152.55 26.8181 152.336 26.8181H151.67C151.17 26.8181 150.647 26.4613 149.981 25.7241L138.947 13.0485V26.4137C138.947 26.6278 138.78 26.7943 138.566 26.7943L136.687 26.8178C136.449 26.8178 136.283 26.6513 136.283 26.4135V8.17295C136.283 7.95892 136.449 7.79244 136.663 7.79244H137.781C137.995 7.79244 138.138 7.88756 138.328 8.1016L150.028 21.7523V8.14916C150.028 7.95892 150.171 7.79244 150.385 7.79244L152.311 7.79225ZM158.59 7.79225L156.758 7.79202C156.52 7.79202 156.378 7.95848 156.378 8.17253V26.4131C156.378 26.6509 156.544 26.8174 156.782 26.8174H158.613C158.827 26.8174 158.97 26.6274 158.97 26.4133V8.17277C158.97 7.95873 158.804 7.79225 158.59 7.79225ZM177.163 7.76839H175.237C174.999 7.76839 174.856 7.91132 174.856 8.17293V19.6594C174.856 22.8223 172.621 24.392 169.981 24.392C167.388 24.392 165.224 22.8225 165.224 19.6594V8.17293C165.224 7.91133 165.082 7.76839 164.844 7.76839H162.965C162.704 7.76839 162.537 7.91132 162.537 8.17293V19.8497C162.537 23.7975 165.296 26.984 169.981 26.984C174.69 26.984 177.52 23.7975 177.543 19.8497V8.17293C177.543 7.91133 177.401 7.76839 177.163 7.76839ZM202.419 7.79225C202.633 7.79225 202.8 7.95895 202.8 8.19701V26.4137C202.8 26.6277 202.657 26.8178 202.419 26.8178H200.54C200.279 26.8178 200.136 26.6513 200.136 26.4135V13.3097L192.383 25.9854C192.264 26.1756 192.146 26.2708 191.955 26.2708H191.837C191.646 26.2708 191.527 26.1756 191.409 25.9854L183.679 13.3097V26.4135C183.679 26.6275 183.513 26.8175 183.275 26.8175H181.396C181.158 26.8175 180.992 26.6511 180.992 26.4132V8.17268C180.992 7.95864 181.135 7.79216 181.372 7.79216H182.989C183.203 7.79216 183.346 7.86351 183.465 8.05376L191.907 21.8474L200.35 8.05376C200.445 7.86351 200.587 7.79216 200.825 7.79216L202.419 7.79225Z" fill="white"/>
</svg>
