<svg width="230" height="30" viewBox="0 0 230 30" fill="none" xmlns="http://www.w3.org/2000/svg">
<path d="M28.3662 0.184457C28.6983 0.184457 29.0668 0.48002 28.8455 0.960324L15.268 29.4464C15.1573 29.705 14.8987 29.9263 14.6035 29.9263H14.3087C14.0136 29.9263 13.7553 29.705 13.6446 29.4464L0.0671704 0.923268C-0.15419 0.479912 0.214752 0.184348 0.546811 0.184348H4.27331C4.64225 0.184348 4.78984 0.479911 4.93741 0.849371L14.4564 21.6131L23.9759 0.849371C24.1603 0.479911 24.271 0.184348 24.64 0.184348L28.3662 0.184457ZM36.2241 0.184457L33.3827 0.184097C33.0137 0.184097 32.7924 0.442712 32.7924 0.775246V29.1131C32.7924 29.4825 33.0506 29.7411 33.4199 29.7411H36.2609C36.593 29.7411 36.8143 29.4459 36.8143 29.1134V0.775616C36.8143 0.443104 36.5562 0.184457 36.2241 0.184457ZM58.1767 14.002C61.239 15.4059 63.1575 18.2143 63.1575 21.5023C63.1575 26.3793 58.8776 29.741 54.3396 29.741H42.4224C42.0535 29.741 41.7952 29.4824 41.7952 29.1129V0.775104C41.7952 0.442593 42.0165 0.183956 42.3855 0.183956H53.3806C58.066 0.183956 61.5709 4.28509 61.5709 7.97969C61.5709 10.6768 60.1321 12.7828 58.1767 14.002ZM52.5688 12.7832C58.6935 12.7832 58.804 4.2117 52.6426 4.2117H45.9645V12.7832H52.5688ZM53.3803 25.7144C60.6117 25.7144 60.6487 16.6995 53.3065 16.6995H45.9643L46.0012 25.7144H53.3803ZM89.4629 29.0388C89.7212 29.4083 89.5371 29.7408 89.0578 29.7408H86.3272C85.5155 29.7408 84.851 29.0022 84.5563 28.5589L78.8005 20.0612H71.4954V29.113C71.4954 29.5194 71.274 29.7407 70.905 29.7407H67.9165C67.5475 29.7407 67.3261 29.5194 67.3261 29.113V0.775191C67.3261 0.44268 67.5475 0.184044 67.9165 0.184044H79.2801C85.7363 0.184044 89.2047 5.68899 89.2047 10.1223C89.2047 13.8169 86.9913 17.9553 82.8218 19.4697L89.4629 29.0388ZM71.4963 4.21061V16.0334H78.8015C82.9708 16.0334 85.0368 13.0407 85.0368 10.048C85.0368 7.09234 82.9338 4.21039 78.8015 4.21039L71.4963 4.21061ZM121.932 29.0758C122.117 29.4456 122.006 29.7408 121.6 29.7408H118.243C117.911 29.7408 117.727 29.5934 117.616 29.3344L115.329 24.5313H99.4268L97.1761 29.3344C97.0286 29.5934 96.8441 29.7408 96.5489 29.7408H93.1546C92.7857 29.7408 92.6012 29.4456 92.7488 29.0758L106.658 0.332512C106.769 0.0738967 106.953 0 107.138 0H107.617C107.802 0 107.949 0.0738924 108.097 0.332512L121.932 29.0758ZM101.234 20.7263H113.52L107.395 7.64733L101.234 20.7263ZM151.264 0.184457C151.596 0.184457 151.855 0.443443 151.855 0.739028V29.188C151.855 29.4836 151.633 29.7422 151.301 29.7422H150.268C149.493 29.7422 148.682 29.188 147.649 28.0427L130.529 8.3503V29.1141C130.529 29.4466 130.271 29.7052 129.939 29.7052L127.024 29.7418C126.655 29.7418 126.397 29.4832 126.397 29.1137V0.775898C126.397 0.443387 126.655 0.184749 126.987 0.184749H128.721C129.053 0.184749 129.274 0.332536 129.569 0.665054L147.722 21.8722V0.73895C147.722 0.443387 147.943 0.184749 148.275 0.184749L151.264 0.184457ZM161.004 0.184457L158.162 0.184097C157.793 0.184097 157.572 0.442712 157.572 0.775246V29.1131C157.572 29.4825 157.83 29.7411 158.2 29.7411H161.041C161.373 29.7411 161.594 29.4459 161.594 29.1134V0.775616C161.594 0.443104 161.336 0.184457 161.004 0.184457ZM189.819 0.1474H186.83C186.461 0.1474 186.24 0.369438 186.24 0.775867V18.6208C186.24 23.5346 182.772 25.9732 178.676 25.9732C174.654 25.9732 171.297 23.5348 171.297 18.6208V0.775867C171.297 0.369459 171.076 0.1474 170.707 0.1474H167.792C167.386 0.1474 167.128 0.369438 167.128 0.775867V18.9164C167.128 25.0496 171.408 30 178.676 30C185.981 30 190.372 25.0496 190.409 18.9164V0.775867C190.409 0.369459 190.187 0.1474 189.819 0.1474ZM229.001 0.184457C229.333 0.184457 229.592 0.443443 229.592 0.813273V29.114C229.592 29.4465 229.371 29.7418 229.002 29.7418H226.087C225.681 29.7418 225.46 29.4831 225.46 29.1137V8.75621L213.432 28.4486C213.247 28.7442 213.063 28.8919 212.768 28.8919H212.584C212.288 28.8919 212.104 28.7442 211.919 28.4486L199.928 8.75621V29.1137C199.928 29.4462 199.67 29.7414 199.301 29.7414H196.386C196.017 29.7414 195.758 29.4828 195.758 29.1133V0.775475C195.758 0.442964 195.98 0.184326 196.349 0.184326H198.858C199.19 0.184326 199.411 0.295164 199.595 0.590734L212.693 22.02L225.791 0.590734C225.938 0.295171 226.16 0.184326 226.529 0.184326L229.001 0.184457Z" fill="#FFCD3C"/>
</svg>
