<svg width="202.80000000000004" height="26.462521595036936" viewBox="0 0 350 45.670032338574586" class="looka-1j8o68f"><defs id="SvgjsDefs7384"></defs><g id="SvgjsG7385" featurekey="VGK2BT-0" transform="matrix(3.318432821143146,0,0,3.318432821143146,-1.4168155993394485,-21.093218386214996)" fill="#111111"><path d="M13.458 6.441000000000001 c0.15254 0 0.32186 0.13559 0.22017 0.35593 l-6.2373 13.068 c-0.050847 0.11864 -0.16966 0.22017 -0.30525 0.22017 l-0.13543 0 c-0.13559 0 -0.25424 -0.10153 -0.30508 -0.22017 l-6.2373 -13.085 c-0.10169 -0.20339 0.067797 -0.33898 0.22034 -0.33898 l1.7119 0 c0.16949 0 0.23729 0.13559 0.30508 0.30508 l4.3729 9.5254 l4.3731 -9.5254 c0.084746 -0.16949 0.13559 -0.30508 0.30508 -0.30508 l1.7119 0 z M17.067793220338984 6.441000000000001 l-1.3053 -0.00016552 c-0.16949 0 -0.27119 0.11864 -0.27119 0.27119 l0 13 c0 0.16949 0.11864 0.28814 0.28831 0.28814 l1.3051 0 c0.15254 0 0.25424 -0.13543 0.25424 -0.28797 l0 -13 c0 -0.15254 -0.11864 -0.27119 -0.27119 -0.27119 z M27.152515254237287 12.7798 c1.4068 0.64407 2.2881 1.9324 2.2881 3.4408 c0 2.2373 -1.9661 3.7795 -4.0508 3.7795 l-5.4746 0 c-0.16949 0 -0.28814 -0.11864 -0.28814 -0.28814 l0 -13 c0 -0.15254 0.10169 -0.27119 0.27119 -0.27119 l5.051 0 c2.1524 0 3.7625 1.8814 3.7625 3.5763 c0 1.2373 -0.66102 2.2034 -1.5593 2.7627 z M24.576315254237286 12.2207 c2.8136 0 2.8644 -3.9322 0.033898 -3.9322 l-3.0678 0 l0 3.9322 l3.0339 0 z M24.949115254237288 18.1529 c3.322 0 3.339 -4.1356 -0.033898 -4.1356 l-3.3729 0 l0.016949 4.1356 l3.3898 0 z M41.52498305084745 19.67797 c0.11864 0.16949 0.034064 0.32203 -0.1861 0.32203 l-1.2544 0 c-0.37288 0 -0.67814 -0.33881 -0.81356 -0.5422 l-2.6441 -3.8983 l-3.3559 0 l0 4.1525 c0 0.18644 -0.10169 0.28797 -0.27119 0.28797 l-1.3729 0 c-0.16949 0 -0.27119 -0.10153 -0.27119 -0.28797 l0 -13 c0 -0.15254 0.10169 -0.27119 0.27119 -0.27119 l5.2203 0 c2.9659 0 4.5592 2.5254 4.5592 4.5592 c0 1.6949 -1.0168 3.5934 -2.9322 4.2881 z M33.271383050847454 8.288 l0 5.4237 l3.3559 0 c1.9153 0 2.8644 -1.3729 2.8644 -2.7458 c0 -1.3559 -0.9661 -2.678 -2.8644 -2.678 l-3.3559 0 z M56.44103389830508 19.69492 c0.08458 0.16966 0.033898 0.30508 -0.15254 0.30508 l-1.5424 0 c-0.15254 0 -0.23712 -0.067631 -0.28797 -0.18644 l-1.0508 -2.2034 l-7.3051 0 l-1.0339 2.2034 c-0.067797 0.11881 -0.15254 0.18644 -0.28814 0.18644 l-1.5593 0 c-0.16949 0 -0.25424 -0.13543 -0.18644 -0.30508 l6.3898 -13.186 c0.050847 -0.11864 0.13559 -0.15254 0.22034 -0.15254 l0.22017 0 c0.084746 0 0.15254 0.033898 0.22034 0.15254 z M46.93233389830508 15.8646 l5.6441 0 l-2.8136 -6 z M69.91533898305084 6.441000000000001 c0.15254 0 0.27153 0.11881 0.27153 0.25441 l0 13.051 c0 0.13559 -0.10169 0.25424 -0.25424 0.25424 l-0.47458 0 c-0.35593 0 -0.72881 -0.25424 -1.2034 -0.77966 l-7.8644 -9.0339 l0 9.5254 c0 0.15254 -0.11864 0.27119 -0.27119 0.27119 l-1.339 0.016784 c-0.16949 0 -0.28831 -0.11864 -0.28831 -0.28814 l0 -13 c0 -0.15254 0.11881 -0.27119 0.27119 -0.27119 l0.79661 0 c0.15254 0 0.25424 0.067797 0.38983 0.22034 l8.3388 9.7288 l0 -9.6949 c0 -0.13559 0.10169 -0.25424 0.25424 -0.25424 l1.3729 0 z M74.38982711864406 6.441000000000001 l-1.3053 -0.00016552 c-0.16949 0 -0.27119 0.11864 -0.27119 0.27119 l0 13 c0 0.16949 0.11864 0.28814 0.28831 0.28814 l1.3051 0 c0.15254 0 0.25424 -0.13543 0.25424 -0.28797 l0 -13 c0 -0.15254 -0.11864 -0.27119 -0.27119 -0.27119 z M87.62694915254238 6.4239999999999995 l-1.3729 0 c-0.16949 0 -0.27119 0.10186 -0.27119 0.28831 l0 8.1864 c0 2.2542 -1.5932 3.3729 -3.4746 3.3729 c-1.8475 0 -3.3898 -1.1186 -3.3898 -3.3729 l0 -8.1864 c0 -0.18644 -0.10153 -0.28831 -0.27119 -0.28831 l-1.339 0 c-0.18644 0 -0.30508 0.10186 -0.30508 0.28831 l0 8.322 c0 2.8136 1.9661 5.0846 5.3051 5.0846 c3.3559 0 5.3729 -2.271 5.3898 -5.0846 l0 -8.322 c0 -0.18644 -0.10169 -0.28831 -0.27119 -0.28831 z M105.62674576271188 6.441000000000001 c0.15254 0 0.27168 0.11881 0.27168 0.28847 l0 12.983 c0 0.15254 -0.10169 0.28797 -0.27136 0.28797 l-1.339 0 c-0.18644 0 -0.28814 -0.11864 -0.28814 -0.28814 l0 -9.339 l-5.5254 9.0339 c-0.084746 0.13559 -0.16949 0.20339 -0.30508 0.20339 l-0.08458 0 c-0.13559 0 -0.22034 -0.067797 -0.30508 -0.20339 l-5.5085 -9.0339 l0 9.339 c0 0.15254 -0.11881 0.28797 -0.28831 0.28797 l-1.339 0 c-0.16949 0 -0.28831 -0.11864 -0.28831 -0.28814 l0 -13 c0 -0.15254 0.10186 -0.27119 0.27119 -0.27119 l1.1525 0 c0.15254 0 0.25424 0.050847 0.33898 0.18644 l6.0169 9.8307 l6.0168 -9.8307 c0.067797 -0.13559 0.16949 -0.18644 0.33898 -0.18644 l1.1356 0 z"></path></g></svg>